/* XPM */
static char *bas_gauche[] = {
/* width height ncolors chars_per_pixel */
"20 20 2 1",
/* colors */
"  c #000000",
". c #0000FF",
/* pixels */
"        ....        ",
"        ....        ",
"        ....        ",
"        ....        ",
"        ....        ",
"        ....        ",
"        ....        ",
"        .....       ",
"        ............",
"         ...........",
"          ..........",
"           .........",
"                    ",
"                    ",
"                    ",
"                    ",
"                    ",
"                    ",
"                    ",
"                    "
};
