/* XPM */
static char * grospoint_xpm[] = {
"20 20 31 1",
" 	c None",
".	c #030300",
"+	c #020200",
"@	c #000000",
"#	c #010100",
"$	c #010000",
"%	c #595900",
"&	c #BFBF00",
"*	c #F6F600",
"=	c #8B8B00",
"-	c #FEFE00",
";	c #FDFD01",
">	c #F5F500",
",	c #BEBE00",
"'	c #FEFE01",
")	c #FCFC02",
"!	c #BDBD01",
"~	c #575700",
"{	c #FCFC00",
"]	c #FDFD00",
"^	c #888800",
"/	c #FBFB00",
"(	c #FAFA00",
"_	c #8A8A00",
":	c #565600",
"<	c #BABA00",
"[	c #F0F000",
"}	c #EEEE00",
"|	c #B9B900",
"1	c #030000",
"2	c #070000",
".+@@@@@@##+#@@@@@@@@",
"+@@@@@@#@@#@@@@@@@@@",
"@@@@@@@#@#+#@@@@@@@@",
"@@@@@@####+#@@@@@@@@",
"@@@@@@@@@#+##$@@@@@@",
"@@@@@@@%&**&%@@@@@@@",
"@@@@@@=------=@@@@@@",
"@@@@@%--------%@@@@@",
"@@@@@&--------&@@@@@",
"@@@@@*--------*@@@@@",
"@@@@@*------;;>#@@@@",
"@@@@@,-'--;;;)!@@@@@",
"@@@@@~{]]]]{{{~@@@@@",
"@@@@@@^/]{(/{_@@@@@@",
"@@@@@@@:<[}|~@@@@@@@",
"@@@@@@@@@@@@@@@@@@@@",
"@@@@@@@@@@@@@@@@@@@@",
"@@@@@@@@@@@@@@@@@@@$",
"@@@@@@@@@@@@@@@@@@$1",
"@@@@@@@@@@@@@@@@@$12"};
