/* XPM */
static char * joueur_xpm[] = {
"20 20 10 1",
" 	c #000000000000",
".	c #9658B2CA6185",
"X	c #FFFFFFFF0000",
"o	c #AEBAD34C6185",
"O	c #AEBAD34C71C6",
"+	c #AEBAD34C79E7",
"@	c #EFBEF7DE1861",
"#	c #DF7DEBADAEBA",
"$	c #E79DEFBE5965",
"%	c #DF7DEBAD5965",
"                    ",
"                    ",
"        ....        ",
"      ..XXXXo.      ",
"     XXXXXXXXOX     ",
"    XXXXXXXXXXXX    ",
"    XX  XXXX  X+@   ",
"   XXX  XXXX  XXo   ",
"   XXXXXXXXXXXXXX@  ",
"   XXXXXXXXXXXXXX@  ",
"   XXXXXXXXXXXXXX@  ",
"   XXXX XXXXX XX#@  ",
"    XXX  XXX  XX@   ",
"    XXXX     XX#@   ",
"     $+XXXXXXX#@    ",
"      $%XXXX#X@     ",
"        $%%%@       ",
"                    ",
"                    ",
"                    "};
