/* XPM */
static char *monstre_vert[] = {
/* width height ncolors chars_per_pixel */
"20 20 5 1",
/* colors */
"  c #000000",
". c #FAFFFF",
"X c none",
"o c #FFFF00",
"O c #0000FF",
/* pixels */
"XXXXXXXXXXXXXXXXXXXX",
"XXXXXXooooooooXXXXXX",
"XXXXooooooooooooXXXX",
"XXXo    ooo    ooXXX",
"XXo  ..  o  ..  ooXX",
"Xoo .... o .... oooX",
"Xoo OO.. o OO.. oooX",
"Xoo OO.. o OO.. oooX",
"Xoo OO.. o OO.. oooX",
"Xoo .... o .... oooX",
"Xoo  ..  o  ..  oooX",
"Xooo    ooo    ooooX",
"XooooooooooooooooooX",
"XooooooooooooooooooX",
"XooooooooooooooooooX",
"XooooooooooooooooooX",
"XooooooooooooooooooX",
"XooooooXoooooXoooooX",
"XXooooXXXoooXXXoooXX",
"XXXooXXXXXoXXXXXoXXX"
};
