/* XPM */
static char * point_xpm[] = {
"20 20 11 1",
" 	c None",
".	c #030300",
"+	c #020200",
"@	c #000000",
"#	c #010100",
"$	c #010000",
"%	c #959500",
"&	c #F2F200",
"*	c #FFFF00",
"=	c #030000",
"-	c #070000",
".+@@@@@@##+#@@@@@@@@",
"+@@@@@@#@@#@@@@@@@@@",
"@@@@@@@#@#+#@@@@@@@@",
"@@@@@@####+#@@@@@@@@",
"@@@@@@@@@#+##$@@@@@@",
"@@@@@@@###++#@@@@@@@",
"@@@@@@@#####+#@@@@@@",
"@@@@@###%&&%+##@@@@@",
"@@@@@##%****%##@@@@@",
"@@@@@##&****&#+@@@@@",
"@@@@@##&****&#+#@@@@",
"@@@@@##%****%#@@@@@@",
"@@@@@@##%&&%#@@@@@@@",
"@@@@@@@#####@@@@@@@@",
"@@@@@@@@@@@@@@@@@@@@",
"@@@@@@@@@@@@@@@@@@@@",
"@@@@@@@@@@@@@@@@@@@@",
"@@@@@@@@@@@@@@@@@@@$",
"@@@@@@@@@@@@@@@@@@$=",
"@@@@@@@@@@@@@@@@@$=-"};
